<svg width="45" height="48" viewBox="0 0 45 48" fill="none" xmlns="http://www.w3.org/2000/svg">
<path d="M30.9985 4.86371C35.8588 6.83738 39.873 10.4406 42.3462 15.0496C44.8193 19.6587 45.5958 24.9834 44.5412 30.1022C43.4866 35.221 40.6672 39.8117 36.5712 43.0795C32.4752 46.3474 27.3603 48.0868 22.1119 47.9967C16.8634 47.9065 11.8119 45.9925 7.83151 42.5859C3.85117 39.1793 1.19261 34.4946 0.316003 29.3426C-0.5606 24.1907 0.399935 18.8957 3.03134 14.3744C5.66275 9.85302 9.79941 6.38981 14.7253 4.58422L22.5 25.6023L30.9985 4.86371Z" fill="#D95B43"/>
<path d="M22.2668 18.4571L14.6711 0L30.505 0.275126L22.2668 18.4571Z" fill="#ECD078"/>
<path d="M22.9627 25.7919L31.27 5.5197C35.816 7.48641 39.5661 10.9262 41.9056 15.286C44.3234 19.7919 45.0824 24.9973 44.0515 30.0013C43.0205 35.0053 40.2643 39.4935 36.2594 42.6887C32.2544 45.8839 27.2529 47.5849 22.1204 47.4967C16.988 47.4086 12.0484 45.5369 8.15662 42.2061C4.26486 38.8753 1.66586 34.2952 0.808919 29.2588C-0.0480169 24.2224 0.890922 19.0461 3.46349 14.6259C5.95266 10.3489 9.81983 7.03997 14.4312 5.23052L22.0311 25.7758L22.4762 26.9791L22.9627 25.7919ZM29.7355 0.761832L22.2889 17.1969L15.4229 0.51314L29.7355 0.761832Z" stroke="black"/>
</svg>
