<svg width="48" height="47" viewBox="0 0 48 47" fill="none" xmlns="http://www.w3.org/2000/svg">
<mask id="path-1-inside-1_1_11" fill="white">
<path d="M33.0651 0.777832C38.2494 2.89269 42.5312 6.75366 45.1693 11.6924C47.8073 16.6312 48.6356 22.3369 47.5106 27.8218C46.3857 33.3068 43.3784 38.2259 39.0093 41.7275C34.6402 45.2292 29.1843 47.093 23.586 46.9964C17.9877 46.8998 12.5993 44.8489 8.35358 41.1986C4.10788 37.5483 1.27207 32.5285 0.337024 27.0079C-0.598021 21.4874 0.426552 15.8137 3.23339 10.9689C6.04023 6.12406 10.4527 2.4131 15.7069 0.47834L24 23L33.0651 0.777832Z"/>
</mask>
<path d="M33.0651 0.777832C38.2494 2.89269 42.5312 6.75366 45.1693 11.6924C47.8073 16.6312 48.6356 22.3369 47.5106 27.8218C46.3857 33.3068 43.3784 38.2259 39.0093 41.7275C34.6402 45.2292 29.1843 47.093 23.586 46.9964C17.9877 46.8998 12.5993 44.8489 8.35358 41.1986C4.10788 37.5483 1.27207 32.5285 0.337024 27.0079C-0.598021 21.4874 0.426552 15.8137 3.23339 10.9689C6.04023 6.12406 10.4527 2.4131 15.7069 0.47834L24 23L33.0651 0.777832Z" fill="#D95B43" stroke="black" stroke-width="2" mask="url(#path-1-inside-1_1_11)"/>
</svg>
